<?xml version="1.0" encoding="utf-8"?>
<!-- Generator: Adobe Illustrator 18.1.0, SVG Export Plug-In . SVG Version: 6.00 Build 0)  -->
<svg version="1.1" id="Layer_1" xmlns="http://www.w3.org/2000/svg" xmlns:xlink="http://www.w3.org/1999/xlink" x="0px" y="0px"
viewBox="0 0 128 128" enable-background="new 0 0 128 128" xml:space="preserve">
<style type="text/css">
  <![CDATA[
  .mirrawe-logo-outline {
          fill:#FFFFFF;
          opacity: 0.75;
  }
  .mirrawe-logo-letter {
        fill:#FFFFFF;
        stroke:#FFFFFF;
        opacity: 0.75;
  }
  ]]>
</style>
<g class="mirrawe-logo-outline" >
  <path  d="M121,125.3c-0.3,0.1-0.1,0.3,0.5,0.2c0,0,0.1-0.1,0.2-0.2c0.1-0.1,0.2-0.2,0.2-0.2s-0.2,0.1-0.5,0.1
  C121.2,125.3,121,125.3,121,125.3z"/>
  <path  d="M125,123.9c0.4-0.8,0.3-1.7-0.1-1.4c0,0.4,0,0.6-0.1,0.8c-0.1,0.2-0.2,0.5-0.3,0.9
  c-0.4,0.5-1,0.7-0.9,0.5c-0.1,0.2-0.9,0.4-1.2,0.7c0.9,0,2-0.7,2.5-1.8C125.1,123.5,125,123.8,125,123.9z"/>
  <path  d="M126.5,55l0,0.4C126.4,55.3,126.5,55.1,126.5,55z"/>
  <path  d="M126.6,12.1c0,0.3,0,0.5,0.1,0.5C126.7,12.3,126.7,12.1,126.6,12.1z"/>
  <path  d="M126.5,4.5c0.1,0.2,0.1,0.3,0.2,0.5C126.6,4.8,126.5,4.6,126.5,4.5z"/>
  <path  d="M126.5,55l0.1-1.1C126.5,53.8,126.5,54.4,126.5,55z"/>
  <path  d="M125.1,114.6c0,0.2,0,0.4,0.1,0.6C125.2,115,125.2,114.8,125.1,114.6,C125.2,114.6,125.2,114.6,125.1,114.6z"/>
  <path  d="M126.7,73.9l0,0.3c0,0.1,0.1,0.2,0.1,0.3L126.7,73.9z"/>
  <path  d="M126.8,88.3c0-0.3-0.3-0.4-0.4-0.6c0.1,0.2,0.2,0.4,0.2,0.7C126.6,88.5,126.7,88.5,126.8,88.3z"/>
  <path  d="M126.3,111.3l0,0.4C126.3,111.6,126.3,111.4,126.3,111.3z"/>
  <path  d="M126.8,63.5c0,0,0.1-0.1,0.1-0.1C126.9,63.4,126.8,63.4,126.8,63.5z"/>
  <path  d="M104.2,124.7C104.2,124.7,104.2,124.7,104.2,124.7C104.3,124.7,104.3,124.7,104.2,124.7z"/>
  <path  d="M121,126.1l-0.2,0c0,0.1-0.1,0.1-0.1,0.2L121,126.1z"/>
  <path  d="M113.3,0.6C113.3,0.6,113.3,0.6,113.3,0.6C113.7,0.6,113.5,0.6,113.3,0.6z"/>
  <path  d="M0.8,15.7c0.3-1.4,0.3,2.3,0.6,0.2C1.3,16.1,1,14,0.8,15.7z"/>
  <path  d="M125.2,114.2c0-0.2,0-0.4,0-0.6C125.2,113.9,125.2,114,125.2,114.2z"/>
  <path  d="M1.4,15.9L1.4,15.9l0-0.2C1.5,15.7,1.4,15.8,1.4,15.9z"/>
  <path  d="M82.5,0.8c0.1,0,0.2,0.1,0.3,0.1C82.8,0.9,82.7,0.9,82.5,0.8z"/>
  <path  d="M105.4,1.2l-0.6,0C105.1,1.2,105.3,1.2,105.4,1.2z"/>
  <path  d="M70.5,1.2c-0.3,0-0.4-0.1-0.8,0c0,0,0.1,0,0.1,0C70,1.2,70.2,1.2,70.5,1.2z"/>
  <path  d="M58.1,1.2c0.1,0,0.2,0,0.2,0.1c0.1,0,0.3,0,0.4,0L58.1,1.2z"/>
  <path  d="M66.5,124.8c0.3,0.1,0.4,0.2,0.6,0.3C66.9,124.9,68.7,124.8,66.5,124.8z"/>
  <path  d="M125.3,114.6c-0.1-0.1-0.1-0.2-0.1-0.4c0,0.1,0,0.3,0,0.4C125.2,114.6,125.3,114.6,125.3,114.6z"/>
  <path  d="M70,3.4l-2,0C68.6,3.4,69.3,3.4,70,3.4z"/>
  <path  d="M3.1,99.3l0,0.5C3.2,99.6,3.2,99.4,3.1,99.3z"/>
  <path  d="M62.2,3.4c-0.4-0.1-0.7-0.2-1.1-0.2c-0.1,0-0.2,0-0.2,0.1L62.2,3.4z"/>
  <path  d="M67.1,125.1L67.1,125.1L67.1,125.1z"/>
  <path  d="M80,124.4c-1.9,0-0.9,0.4-1.3,0.6c-2.2,0.1-1-0.3-1.8-0.5c-1.4,0.1-2.5,0.4-3.5,0.4
  c-0.1-0.1-0.3-0.1,0-0.2c-1.5,0.3-4.4,0-6.1,0.4c-0.1,0-0.2-0.1-0.2-0.1c0.3,0.2,0.3,0.4,0.3,0.5c-0.8,0-1.6,0.2-1.9,0
  c0.5,0,0.6-0.1,0.8-0.2l-0.9,0.1c-0.8-0.3,1.2-0.1,1.2-0.4c-1.7,0.1-3.7,0.4-5,0.3c-0.3-0.3,3.1-0.1,1.3-0.4l2,0.1
  c-1.6-0.5,1.2,0-0.2-0.5c-2.7-0.1-3,0.2-5.7,0.1c-0.6,0.2,0.2,0.3-0.4,0.5c-3.8,0.3-3-0.9-5.8-0.4c-0.7,0.2-1,0.7-3,0.4
  l0.7-0.4c-2.6,0-1.5,0.6-4.2,0.3c0.5-0.2,2-0.1,1.7-0.2c-1.8-0.3-1.2,0.2-2.6,0.2l-0.3-0.3c-2.8,0.1-5.8,0.3-8.9,0.4
  c0.2-0.1,0.7-0.2,0-0.3c-3.9,0.2-8.3,0-12-0.2l-1.4,0.3c-0.3,0-0.6-0.1-0.3-0.2c-1.5-0.1-0.1,0.2-0.8,0.3
  c-0.8,0-1.1-0.2-0.6-0.3c-2.6,0.2-7.3,0.5-10,0.2l0.5-0.1c-2.1-0.1-2.4,0.6-4.3,0.3l0.4-0.1c-0.6,0-1.1,0-1.5-0.1
  c-0.5-0.1-0.9-0.3-1.3-0.5c-0.8-0.5-1.5-1.3-1.7-2.2c-0.1-0.5-0.2-0.9-0.2-1.4c0-0.5,0-1.1,0-1.6c0-1,0.1-2,0.2-2.9
  c-0.4-0.7,0.2-4.5-0.4-4.8c0.3-2.6,0.4-1.9,0.6-5.5c0-1-0.4-1.5-0.4-2.7l0.3,0l-0.3-1.6l0.4-0.9l-0.1-1.1c0,0.5-0.1,1-0.2,0.9
  c-0.1-1.8,0.2-4.3,0.4-4.4L3.1,92c0.1,0.1,0.2,0.8,0.2,1.4c-0.3-2.2,0.3-0.4,0-2.5c-0.1,0.3-0.2-0.1-0.2-0.2
  c0.2-1,0.2-3.4,0.1-5.1L3.4,86c0.1-3.1-0.1-6.6-0.1-10.1c-0.1,1.3-0.5,1-0.5-0.1l0.3-0.4c-0.2-0.7-0.1,1.1-0.4-0.3
  c0-1.3,0.4-0.9,0.5-0.1l-0.1-1.6c0.1-0.1,0.1,0.3,0.3,0.4c-0.2-0.7,0.3-2.7,0-3.7L3.5,70c0-3.5-0.1-5.1-0.1-7.9
  c-0.3-0.1-0.2-1.2-0.4-2C3,58,3.2,55.7,3.2,53.1c-0.1-1.8-0.2-0.5-0.4-1.3c0.3-0.1,0.2-2.7,0.4-1.3c0-3-0.1-3.9-0.3-7.7
  c-0.1,0.4-0.2,0.9-0.2,0.6c0-0.7,0.1-1.6,0.2-1.5l0,0.2c-0.4-4.3,0.7-9.9,0.2-13.3l0,0.2l-0.3-3.6c0-1.6,0.2,1,0.4-0.2
  c-0.4-3.8,0.1-6.1-0.2-9.2c0.4-1.2,0.4-3.4,0.3-5.7c0-1.1-0.1-2.3,0-3.4c0-0.8,0.3-1.5,0.8-1.9l-0.2,0c0.2-0.6,0.5-0.5,0.9-0.8
  c-0.1-0.1-0.6,0.3-0.4,0c0.5-0.5,1.1-0.9,1.8-1c0.2,0,0.3-0.1,0.5-0.1c0.2,0,0.4,0,0.6,0l1.4,0c1.8,0,3.7,0.1,5.6,0.1
  c3.7,0.1,7.5,0.2,11.2,0.4c2.7,0,1.5-0.9,4.9-0.5l-1,0.3c5.5-0.4,11.2,0,16.5-0.3c-0.3,0.1-0.3,0.2-0.8,0.2
  c1.1,0.2,4.2,0,4.2-0.2c0.8,0,0.2,0.2,0.7,0.3c1.1,0.1,2.8-0.3,3.4-0.1c0.1,0-0.3,0.1-0.5,0.1c0.7-0.1,3.4,0,2.7-0.2
  c2,0.1,3.8-0.1,5.4,0c1-0.3,3.4,0.1,3.8-0.3c-0.1,0.5,3.5,0.4,4.8,0.2c-0.4,0.1,1.1,0.1,0.6,0.3c1.4,0,2.8-0.1,2.5-0.3
  c2.7,0.5,5.4-0.4,6.9,0.3c4.3-0.2,8.3-0.4,12.1-0.5c-0.1,0.5-4.3,0-4.1,0.5c3.7-0.2,5.8-0.6,9.4-0.5C98,3,96.6,3.1,96.3,3.2
  c3.7-0.2,7.1,0,10.3-0.2c0,0-0.4,0.1-0.7,0.1c0.6,0,1.5,0.1,1.4-0.1L106.7,3c-1-0.3,2.6-0.6,2.7-0.8c-1.1,0.6,3.2,0.1,1.5,0.9
  c0.4,0,1-0.1,0.9-0.3c0.6,0,0.8,0.1,0.2,0.3c2.3-0.1,1.5-0.3,3.6-0.3c0,0.1-0.4,0.1-0.6,0.3c1.1-0.2,2.1-0.4,3.9-0.3
  c-0.1,0.1,0.1,0.1-0.4,0.1c0.8,0,1.5,0,2.1-0.1c0.7-0.1,1.2-0.1,1.8,0c1.1,0.2,2.3,1,2.8,2.4c-0.4-0.3-0.3-0.1-0.2,0.3
  c0.1,0.3,0.2,0.8,0,0.9c0,0,0,0.1,0.1,0.2c0,0.1,0,0.3,0.1,0.5c0,0.4,0.1,0.9,0.1,0.9l0.2-0.7c0,1.6,0.3,2.9,0.1,4.3l-0.2-1.2
  l0.1,2.9l0.1-1.7c0.2,1.6,0.5-0.2,0.4,1.9c0-0.4,0,1.6-0.2,2.4l0,0c0.1,0.8,0.2,1.6,0.2,2.7c-0.1,0.3-0.4-0.2-0.5,0
  c0.3,0.8,0.1,3.7,0.4,4.6c-0.1-0.3-0.3-0.3-0.3-0.2l0.3,0.6c-0.1,0.7-0.1,0.8-0.3,0.7c0,2.2,0.5-0.7,0.3,1.9
  c0-0.2-0.1-0.1-0.1-0.5c-0.1,2.6,0.2,5,0,7.4c-0.4,0.7-0.1-2.1-0.4-1.3c0.1,3.4,0.5,7.1,0.4,10.5l0-0.6c0.5,0.5-0.3,2.5,0,4.2
  c0-0.4-0.3-0.5-0.2-0.4c-0.1,2.3,0.1,4.7,0.3,8.1l-0.1-0.4c-0.1,1.3-0.1,3.5-0.1,5c0.1,0.4,0.1,1.3,0.3,0.8
  c-0.8,4.5,0.4,8.5-0.2,12.5c0-0.5-0.1-1.1-0.1-0.8l0.1,3.4c0.2-0.3,0.1-0.4,0.3-1.2c0.1,0.4,0.2,1.4,0.2,2.2
  c-0.2-1.5-0.4,0-0.5,0.7c0.1-0.1,0.1,0.1,0.2,0.1c-0.4,1.8,0.5,0.3,0.2,2.7l-0.1-0.1c0.1,0.9,0.2,1.7,0.2,2.7
  c-0.3,0.4-0.1-1-0.3-1c0,1.4,0.5,2.7,0.2,3.9c-0.1-0.6-0.1-1.4-0.1-2c-0.3,1.3-0.2,1.5-0.3,2.5l0-0.1l-0.1,2.3l0.1-0.6
  c0.7,1.7,0.1,3.5,0.6,5.8c-0.4-2.2-0.3-0.4-0.6-0.5c-0.1,0.6-0.2,1.5-0.3,1.2c0.2,1.1-0.2,1.8,0.2,3.4c-0.1,0.1,0,1.2-0.3,0.9
  c0.1,1.4,0.2-0.3,0.3-0.2c0.3,2.2-0.4,5.1,0.1,8.3c0.2,2.7,0.5,3.2,0.7,5.7c-0.2,0.8-0.4-0.7-0.4-0.7c-0.1,1.4-0.1,2.4,0,3.7
  c-0.1-0.3-0.2,0-0.3,0.4c0,1,0.4,0.7,0.2,2.1c-0.1-0.2-0.3-0.5-0.4-1c0.1,1.2,0.3,2.4,0.4,3.7c-0.2,0.3-0.3-0.8-0.4-1.2
  c0.1,1.4,0.2,3.7,0.4,4.1c0,0,0.2-0.8,0.2-0.9c0,0.5-0.2,0.3-0.3-0.1c-0.2-1.2,0.1-1.8,0.2-1.8l0.1,0.9
  c0.6-0.9-0.1-3.6-0.1-5.4l0.4,0.8l-0.3-1.9c0.1-0.4,0.3-0.7,0.4,0.2c0.2-1.3-0.1-1.1,0.1-2.3c0-0.1,0.1-0.1,0.1,0l-0.1-1.3
  c0.1,0.2,0.3-0.2,0.2,0.6c0.2-2.3-0.3-3.7,0-4.5l0,0.2c-0.1-3.2-0.3-0.3-0.7-2.7l0.8-1.6l-0.3-0.3c0-0.3,0-1,0.2-0.9
  c-0.2-1.2-0.1,0.2-0.3-0.5c0.3-1.6-0.1-4.3,0.4-4.7c-0.2-0.6-0.2,1.5-0.3-0.2c0.5-0.5-0.1-1.9,0.2-3.4c0.3,0.4,0.1,1.8,0.4,0.4
  c-0.5-0.9,0.1-2.8,0-4c-0.4-0.1-0.2-2.6-0.3-4.7c0.1,0.1,0.2-3.8,0.3-5.7l0.1,0.1c-0.4-0.4-0.3-2.3-0.4-3.7
  c0.2,0.1,0.3,0.3,0.4,1.1l0-1.3c-0.1-0.3-0.2-0.7-0.2-1.6l0.3,0.3c0-1.8-0.3-3.6-0.1-5.9c-0.3-0.1-0.7,1.8-0.9-0.6
  c0.1-0.1,0.4-0.2,0.4,0.5c0-0.2-0.1-0.7-0.1-1.2l0.2,1c0.1-1-0.2-0.5-0.2-1.4c0.2,0,0.1-0.6,0.3-0.5c0,0.2-0.1,0.7,0,1
  c0-0.9,0.2-2.1,0.3-2.4c-0.1,0.1-0.3,0-0.3-0.7c0-1.8,0.2-0.6,0.3-1.6c-0.1-0.4,0-1.6-0.3-1.6c0-0.5,0.1-0.6,0.2-0.8
  c-0.1-0.9,0-4.3-0.4-3.3l0,0.2c0,0,0-0.1,0-0.2c0,0,0,0,0,0v0c-0.3-3,0.2-6.2,0-9.2l0.1,0c-0.1-1.8-0.1-4-0.3-5.2
  c0-0.5,0.2-1.2,0.3-1c-0.1-1.4-0.2-1.5,0-3.5c0.2,1.4,0.2-0.5,0.1,1.4c0.1-1.8,0.2-2.2,0-4.1c0.3,0.6,0.3-1.3,0.2-2.2l-0.2,1.2
  c0-0.9,0-1.8,0-2.6l0.3,0.5c0.4-3.6-0.7-6.5,0-9.3c-0.2-1-0.2,2-0.4,1.1c0-1.7,0.5-3.4,0.5-3.9c0.2-2.3-0.5-2.1-0.4-4.5
  c-0.1,0.3-0.4,0.6-0.5-1.2c0-1.7,0.5-2,0.6-1c0,0.4,0,0.6-0.1,0.6c0,0.5,0.1,1.2,0.2,0.6l-0.1-0.2c0.1-0.8,0.1-3.1,0.3-2.6
  c-0.1-1.3-0.2-0.5-0.3,0.4c0.1-1.1,0.1-1.9,0.1-2.7c0-0.4,0-0.8,0-1.3c0-0.5-0.1-1.1-0.3-1.7c0.1,0.4,0,0.8-0.1,0.4
  c-0.2-0.9-0.6-1.4-0.8-1.7c-0.2-0.3-0.4-0.4-0.5-0.5C125,3.1,125,3,124,2.4c-0.5-0.4-0.4-0.4-0.4-0.5c0,0-0.1-0.2-1.3-0.5
  c-1.5-0.3-0.3-0.4,0.4-0.3c-0.6-0.1-1.2-0.1-1.7-0.1c-0.5,0-0.9,0-1.3-0.1c-0.8-0.1-1.6-0.2-2.1-0.2l1.1-0.1
  c-0.6,0.1-1.1,0.1-1.7,0.1l0.6,0.2c-0.6,0-1.1,0-1.1-0.1c-0.6,0.2,0.5,0.4-0.8,0.6c-0.8-0.1-2.5,0.1-2.8-0.2
  c2.6,0.1-0.3-0.3,1.9-0.4c-0.4,0-0.9,0-1.6,0c-0.1,0,0.1-0.1,0.3-0.1c-2.5-0.3-1.1,0.4-3.7,0.3c0.3-0.2-0.6-0.3-1-0.3
  c1,0,0.5,0.3-0.5,0.4c-1.7-0.1-1.8,0.1-2.7,0.1l1,0.1c-0.3,0.2-1.2,0.2-2.3,0.2c-0.1-0.1,1-0.1,0.6-0.2
  c-1.3,0.3-2.9-0.3-4.7-0.1c-0.8-0.1-0.1-0.3-0.8-0.4c-2,0.2-2.2-0.2-4.3-0.1c0.6,0.2,0.7,0.2-0.8,0.4L97.7,1l-2.2,0.3
  c1,0,2.2-0.1,2.8-0.1c-1.1,0.2-0.9,0.1-0.4,0.3c-1.4-0.4-2.8,0.2-4.5,0l0.1-0.6c-2.5-0.3-4.4,0.3-7.6,0.2l1,0.1
  c-0.4,0.2-2,0-3,0.1c0.1-0.2-0.6-0.3-1-0.4c0.1,0.1-2.4,0-2.7,0.4L78.7,1c-2.6-0.1-3,0.6-5.5,0.5C74,1.3,72.8,1.2,74.5,1
  c-0.8,0-1.6,0-1.6,0.1c-0.5-0.1-2.3,0.3-3.1,0.1c-0.4,0.1-0.5,0.3-1.4,0.3c-0.1,0,0-0.1,0-0.1c0,0.1-1.5,0.1-0.6,0.4
  c-2.6-0.6-7.2,0-9.4-0.5c-1.8,0.1-4,0.1-5.7,0.1c0.1-0.1,0-0.1,0.3-0.1c-2.3-0.2-1.4,0.6-4,0.4c-1.3-0.3,1.4-0.2,0.6-0.3
  c-0.4-0.6-3.1,0.1-4.9-0.3l0.4,0c-1.3-0.2-3.3,0.2-5.4,0.2c0,0,0.1-0.1,0-0.1c-1.5,0.3-4.3,0.4-6.4,0.5c0.7-0.3,1-0.1,0.6-0.4
  c-0.9,0,0.3,0.4-1.6,0.5c-0.6-0.1-2-0.3-2.1-0.5l1.8,0c-0.9-0.4-2.3,0-3.2,0L28.7,1C26,1.1,26,1.5,23.1,1.4l0.3,0.1
  C21.8,2,22,1.3,20.4,1.6l-0.5-0.4c-1.1,0.1-3.7,0.4-5.6,0.5c1.1-0.3,3.3-0.4,4.6-0.6c-1,0-3.5,0-4.1,0.2c0.4,0,1-0.1,1.4-0.1
  c-1.3,0.3-3,0.5-5,0.5c0.2-0.4-1.2-0.4-2.8-0.5c-0.4,0-0.8,0-1.2,0c-0.4,0-0.9,0-1.3,0.1C5.1,1.4,4.4,1.6,3.9,1.8
  C3,2.4,2.2,3.2,1.7,4.2c-0.3,0.5-0.4,1-0.6,1.6C1,6.3,1,7,1,7.4c-0.1,1.9-0.1,3.9-0.1,6c0.6-1.5,0,1.3,0.6,1c0,1,0,1.4,0,1.5
  l-0.4,3c-0.2,0.7-0.1-0.9-0.3-0.9c0,2.2-0.3,0.9-0.4,2.4c0.2-0.3,0.3,0.8,0.2,2l0.3-1.8c0.3,3.1-0.5,2.6-0.2,5.7l-0.2-1
  c0.1,1.6,0,5.8,0.5,7.4c-0.1,0.3-0.2,0.6-0.3,0C0.6,36.5,1.2,41.1,0.9,44l-0.1-0.3c0,0.7,0.3,1.2,0.1,2.1c-0.1,0-0.1-0.3-0.2,0
  c0.1,0.4,0.3,1.9,0.2,2.8l-0.2-0.8c-0.2,3.7,0.4,5.6,0.5,8.7c-0.4,0-0.6,2.9-0.7,4.3l-0.1-0.1c-0.1,4.3,0.4,7.3,0.5,11.3
  c-0.5,2.5-0.2,8.3-0.5,12.3C0.7,83.9,1,84.6,1,85.3c-0.1,0.9,0.3,2.6-0.1,2.4l0-0.3c-0.4,0.7-0.3,2.6-0.3,4.1l0.5,0.2
  c-0.8,3.9,0.3,10.2-0.4,12.3c0.1,0.9,0.1,2.1,0.3,3l-0.3-0.1c-0.1,2.6-0.1,3.9,0,7.1l-0.2-0.7c0,1.8,0.8,2.3,0.8,4L0.9,118
  c0,0.8,0,1.6,0,2.4l0,0.6c0,0.2,0,0.5,0,0.7c0.1,0.5,0.1,1,0.3,1.4c0.6,1.9,2.3,3.4,4.3,3.7c-0.1,0-0.2,0.1-0.8-0.1
  c0.4,0.2,1.1,0.4,1.9,0.5c0.2,0,0.4,0,0.6,0l0.5,0c0.3,0,0.6,0,0.9,0c1.2,0,2.1-0.1,1.9-0.4c0,0.4,3.3,0,5-0.1l-0.3,0.3
  c1.4-0.4,1.5-0.5,3.5-0.6c0.5,0,0.4,0.2-0.2,0.2c1.6,0.1,1.2-0.3,3.2-0.1l-0.7,0.2c1.6,0,1.5-0.1,2.4-0.3
  c1-0.1,3.1,0.1,3.4,0.3c0.2-0.2,1.1-0.4,2.1-0.3c0.1,0.1-0.2,0.2-0.4,0.2c2.7,0.2,4.1-0.3,6-0.1c0,0.1,0.2,0.1,0.3,0.2
  c-2.2,0-3.9,0-3.8,0c0,0.3,1.8,0.3,0.4,0.7c1.4-0.2,3.8-0.6,5.5-0.5c0.1,0,0.2,0,0.2,0.1l-0.2,0c0.4,0,0.8,0,1.1,0
  c0.5,0,0.9,0.1,1.4,0.1c0.2,0.2,2,0.1,2.9,0.1c-0.1-0.3,1.1-0.2,0-0.5c0.1,0-0.2,0-0.7,0c-0.1,0-0.3,0-0.4,0c0,0,0,0,0.1,0
  c-0.6,0-1.3,0-2.2,0c0.7-0.1,1.4-0.3,2.4-0.1c0.5-0.2,0.9-0.4,1.2-0.5c1.2,0.4,3.5,0.6,3.8,0.8c2.7-0.2,6.3-0.1,8-0.6
  c0.8-0.1,0.9,0.2,1.2,0.2c-0.4,0.1-1,0-1.2,0.1c1.5-0.1,4.5-0.1,4.9-0.4c1.9,0.2-1.1,0.3,1.6,0.3l-0.4,0.1
  c5.2,0.6,8.4-0.9,14.2-0.2c-0.4,0-0.6-0.1-0.7-0.1c6.6,0.3,13.5-0.3,20,0.2c1.8,0.1,2-0.1,3.2-0.3l0.4,0.3l1.9-0.3
  c2.7-0.3,4.7,0.7,8.2,0.3l-0.4-0.2c1.2,0,3.9-0.1,3.7,0.1c0.1,0,0.4-0.2,0.9-0.1l0,0.2l3-0.3c2.4,0.1-0.4,0.6,3.1,0.7
  c1.3-0.1,3.6-0.5,3.2-0.6c-0.5,0-1.3-0.1-1.4-0.3l1.2-0.1c0.2-0.5,1.1-0.9-1.8-1.3l-2,0.3l-0.6-0.2l1.7,0c-1-0.2-1.6,0-2.2,0.1
  c-0.2-0.1-0.4-0.2-0.8-0.2l-2,0.4c-0.2-0.2,0.9-0.4-0.4-0.5c-0.9,0.2,0.9,0.4-0.6,0.5c-1-0.2-0.7-0.4-1.8-0.2
  c-0.2-0.1,0.1-0.2,0.5-0.2c-1,0.1-2.6,0.1-3.2,0.3c-1-0.3-3.4,0.1-3.3-0.4c-0.3,0.1-1.8,0.3-2.7,0.4c1.7-0.5-3.4,0-3-0.6
  c-1.2,0.5-4.5,0.2-6.7,0.5c0.1,0,0.4-0.1,0.6-0.1c-1.2,0-1.6-0.2-2.4-0.3c-0.2,0.4-2.1,0.5-3.1,0.7c-1.5-0.4,0.9-0.5,0.4-0.8
  c0.1,0.3-2.6,0.3-2.1,0.6c-1.2-0.2-1-0.1-1.6-0.4c-0.2,0.5-1.1,0.1-2,0.4c-1.7-0.2-0.4-0.5-2.3-0.3
  C78.4,124.6,80,124.4,80,124.4z M36.2,125.3L36.2,125.3c0.4,0,0.7,0,0.9,0C36.9,125.2,36.6,125.2,36.2,125.3z M32.5,125.3
  c0.4,0,1,0,1.6,0c0.1,0.1,0,0.2-0.4,0.2C33.9,125.4,33,125.3,32.5,125.3z M40.3,127.2c-0.6,0-0.8,0-0.9-0.1c0.3,0,0.6,0,1,0
  c0,0,0.1,0,0.1,0C40.4,127.1,40.4,127.2,40.3,127.2z"/>
  <path  d="M41.3,126.8c0.1,0,0.1,0,0.2,0c-0.1,0-0.2,0-0.3-0.1c-0.1,0-0.1,0.1-0.2,0.1
  C41.1,126.8,41.2,126.8,41.3,126.8z"/>
  <path  d="M126.4,55.5L126.4,55.5C126.4,55.5,126.4,55.5,126.4,55.5C126.4,55.5,126.4,55.5,126.4,55.5z"/>
  <polygon  points="3.3,103.4 3.2,103.4 3.3,103.7 					"/>
  <path  d="M125.5,75.8c0,0-0.1,0.1-0.1,0.3C125.4,76.1,125.4,76,125.5,75.8z"/>
  <path  d="M125.4,84.6l-0.1,1.2C125.3,85.3,125.4,84.9,125.4,84.6z"/>
  <path  d="M125.3,91.3c0,0.1,0.1,0.1,0.1,0.1c0,0,0,0,0,0L125.3,91.3z"/>
  <path  d="M105.9,3.1c-0.1,0-0.2,0-0.3,0C105,3.1,105.5,3.1,105.9,3.1z"/>
  <path  d="M125.6,16c-0.1-0.3-0.1-0.7-0.1-1C125.4,15.5,125.4,16,125.6,16z"/>
  <path  d="M70.3,3.4L70.3,3.4c-0.1,0-0.1,0-0.2,0L70.3,3.4z"/>
  <path  d="M125.4,13.5c-0.1,0.6,0,1,0,1.5C125.5,14.5,125.5,13.9,125.4,13.5z"/>
  <path  d="M125.1,120.6l0,0.3c0,0,0,0,0,0L125.1,120.6z"/>
  <path  d="M125.2,120.9l0,0.3C125.2,121.1,125.2,121,125.2,120.9z"/>
  <path  d="M125.2,121.9c0,0,0-0.6,0-0.6C125.2,121.5,125.1,121.7,125.2,121.9z"/>
  <path  d="M125.3,111.6l-0.1-0.1C125.2,111.6,125.2,111.6,125.3,111.6z"/>
  <path  d="M125.2,108.9c0,0.6-0.2,1.6-0.2,2.5l0.1,0.1C125,111.1,125.4,109.5,125.2,108.9z"/>
  <path  d="M126.5,97.6l-0.1,2.3c0.1-0.4,0.3-0.9,0.3,0.1C127,97.1,126.4,100.6,126.5,97.6z"/>
  <path  d="M126.6,90.6c0.1,1.2,0.2,0,0.2,0.1C126.8,89.8,126.7,89.6,126.6,90.6z"/>
  <path  d="M126.6,39.6l0.3,0.1C126.9,38.8,126.8,39.7,126.6,39.6z"/>
  <polygon  points="125.3,29.8 125.2,30.8 125.4,31.2 					"/>
  <polygon  points="127.1,24.1 127.2,24.5 127.1,22.9 					"/>
  <path  d="M60.3,0.9l0.3,0.3C61.3,1.2,61.4,0.9,60.3,0.9z"/>
  <path  d="M23.4,1.3C23,1.1,21.9,1,21.3,1.2C22.1,1.2,23,1.3,23.4,1.3z"/>
  <polygon  points="0.8,93.6 0.7,92.8 0.7,94.2 					"/>
</g>
<g class="mirrawe-logo-letter">
        <path stroke-miterlimit="10" d="M111,90.2c-2.7,1.9-6.1,2.6-9.5,2.6c-7.7,0-12.4-6.7-12.4-14V64
        c0-6.1-3.3-10.6-9.9-10.6c-6.1,0-11.3,6-11.3,13.3v25h-9.2V64c0-6.1-3.3-10.6-9.9-10.6c-6.1,0-11.3,6-11.3,13.3v25h-9.2V46.4h9.2
        v6.7c2.8-4.9,7.7-7.8,13.2-7.8c6.8,0,12.5,3.3,15.4,9.5c2.6-5.8,8.1-9.5,14.5-9.5c10.6,0,17.7,7.3,17.7,17.9v14.7
        c0,3.7,2.3,6.4,6.1,6.4c2.6,0,4.7-0.8,6.5-2.6V90.2z"/>
</g>
</svg>
